<svg width="34" height="17" viewBox="0 0 34 17" fill="none" xmlns="http://www.w3.org/2000/svg">
<path d="M34 1.4611C33.9078 0.712659 33.3478 0.116137 32.6347 0C29.509 0 4.50456 0 1.37892 0C0.597809 0.127282 0 0.830556 0 1.67812C0 3.04068 0 13.9388 0 15.3008C0 16.2392 0.731443 17 1.63437 17C4.70856 17 29.305 17 32.3792 17C33.2106 17 33.8971 16.3542 34 15.5184C34 12.707 34 2.86647 34 1.4611Z" fill="#F6C700"/>
<path d="M4.10071 3.41606H6.79883V13.7188H4.10071V3.41606Z" fill="black"/>
<path d="M11.8968 8.16182C11.665 6.59163 11.5361 5.71884 11.5107 5.54463C11.3977 4.70411 11.2901 3.97268 11.1872 3.34859C10.9537 3.34859 9.78822 3.34859 7.68909 3.34859V13.6514H10.0525L10.0608 6.84854L11.0554 13.6514H12.7388L13.682 6.69721L13.6908 13.6514H16.0466V3.34859H12.5218L11.8968 8.16182Z" fill="black"/>
<path d="M20.5011 5.49184C20.5307 5.62323 20.5461 5.9212 20.5461 6.38692C20.5461 6.78636 20.5461 9.98189 20.5461 10.3813C20.5461 11.067 20.5011 11.487 20.4118 11.6418C20.3219 11.7967 20.0831 11.8735 19.6958 11.8735C19.6958 11.1972 19.6958 5.78688 19.6958 5.11059C19.9896 5.11059 20.1901 5.14167 20.2965 5.20267C20.403 5.26426 20.4715 5.36046 20.5011 5.49184ZM21.7198 13.5464C22.0409 13.4766 22.3105 13.3534 22.5293 13.178C22.7475 13.002 22.9006 12.7586 22.9881 12.4472C23.0762 12.1363 23.1283 11.5187 23.1283 10.5948C23.1283 10.2335 23.1283 7.33889 23.1283 6.97699C23.1283 6.00214 23.0898 5.34873 23.0301 5.01674C22.9698 4.68416 22.8202 4.38209 22.5807 4.1111C22.3407 3.84012 21.9906 3.64538 21.5306 3.5269C21.0699 3.40842 20.319 3.34859 19.0128 3.34859C18.8786 3.34859 18.208 3.34859 17 3.34859V13.6514H20.2687C21.0221 13.6279 21.5057 13.5933 21.7198 13.5464Z" fill="black"/>
<path d="M27.4813 12.0067C27.4316 12.1375 27.214 12.2038 27.0496 12.2038C26.8888 12.2038 26.7818 12.1404 26.7274 12.0131C26.673 11.8864 26.6464 11.5973 26.6464 11.1445C26.6464 10.8723 26.6464 8.69385 26.6464 8.42169C26.6464 7.95245 26.67 7.65976 26.7179 7.54303C26.7652 7.42748 26.8693 7.36883 27.0301 7.36883C27.1945 7.36883 27.4151 7.43511 27.4718 7.56825C27.528 7.7014 27.5564 7.98588 27.5564 8.42169C27.5564 8.59765 27.5564 9.47748 27.5564 11.0618C27.5392 11.6043 27.5144 11.9193 27.4813 12.0067ZM24.047 13.5616H26.4761C26.5772 13.1681 26.6328 12.9493 26.644 12.9053C26.864 13.1692 27.1058 13.3675 27.3713 13.4989C27.6356 13.6308 28.0312 13.6965 28.3375 13.6965C28.7638 13.6965 29.1316 13.5857 29.4421 13.3634C29.7519 13.1417 29.9494 12.8789 30.0334 12.5768C30.1173 12.2742 30.1593 11.8143 30.1593 11.1961C30.1593 10.9069 30.1593 8.59472 30.1593 8.30555C30.1593 7.68381 30.1451 7.27791 30.1173 7.08728C30.0895 6.89665 30.0068 6.70251 29.869 6.50366C29.7312 6.30482 29.5308 6.15056 29.2682 6.04029C29.0057 5.93002 28.6958 5.87488 28.3387 5.87488C28.0282 5.87488 27.6309 5.93647 27.366 6.05789C27.1017 6.1793 26.8616 6.36348 26.6464 6.61042C26.6464 6.38694 26.6464 5.27015 26.6464 3.25887H24.047V13.5616Z" fill="black"/>
</svg>
